<svg xmlns="http://www.w3.org/2000/svg" width="47.514" height="47.514" viewBox="0 0 47.514 47.514">
  <path id="Icon_awesome-instagram" data-name="Icon awesome-instagram" d="M23.757,13.813A12.182,12.182,0,1,0,35.936,25.995,12.161,12.161,0,0,0,23.757,13.813Zm0,20.1a7.92,7.92,0,1,1,7.918-7.92A7.933,7.933,0,0,1,23.757,33.914Zm15.518-20.6a2.841,2.841,0,1,1-2.841-2.841A2.834,2.834,0,0,1,39.275,13.314ZM47.341,16.2c-.18-3.806-1.049-7.178-3.837-9.955S37.356,2.6,33.551,2.4c-3.922-.223-15.677-.223-19.6,0C10.157,2.585,6.787,3.454,4,6.232S.352,12.381.162,16.187c-.223,3.923-.223,15.681,0,19.6C.342,39.6,1.211,42.969,4,45.746s6.148,3.647,9.953,3.838c3.922.223,15.677.223,19.6,0,3.805-.18,7.176-1.05,9.953-3.838s3.646-6.149,3.837-9.955c.223-3.923.223-15.67,0-19.593ZM42.275,40a8.017,8.017,0,0,1-4.516,4.517c-3.127,1.24-10.547.954-14,.954s-10.886.276-14-.954A8.017,8.017,0,0,1,5.239,40C4,36.872,4.285,29.451,4.285,25.995s-.276-10.888.954-14.005A8.017,8.017,0,0,1,9.754,7.473c3.127-1.24,10.547-.954,14-.954s10.886-.276,14,.954a8.017,8.017,0,0,1,4.516,4.517c1.24,3.128.954,10.549.954,14.005S43.515,36.883,42.275,40Z" transform="translate(0.005 -2.238)" fill="#fff"/>
</svg>
