<svg xmlns="http://www.w3.org/2000/svg" width="47.23" height="47.23" viewBox="0 0 47.23 47.23">
  <path id="Icon_awesome-arrow-alt-circle-left" data-name="Icon awesome-arrow-alt-circle-left" d="M24.178,47.793A23.615,23.615,0,1,1,47.793,24.178,23.611,23.611,0,0,1,24.178,47.793Zm11.046-27.8H24.178V13.237a1.144,1.144,0,0,0-1.952-.809L11.342,23.368a1.132,1.132,0,0,0,0,1.609L22.226,35.918a1.143,1.143,0,0,0,1.952-.809V28.367H35.223a1.146,1.146,0,0,0,1.143-1.143V21.13A1.146,1.146,0,0,0,35.223,19.988Z" transform="translate(-0.563 -0.563)" fill="#211f2b"/>
</svg>
