<svg xmlns="http://www.w3.org/2000/svg" width="47.514" height="47.514" viewBox="0 0 47.514 47.514">
  <path id="Icon_awesome-facebook-square" data-name="Icon awesome-facebook-square" d="M42.423,2.25H5.091A5.091,5.091,0,0,0,0,7.341V44.673a5.091,5.091,0,0,0,5.091,5.091H19.647V33.61H12.965v-7.6h6.682V20.212c0-6.591,3.924-10.232,9.934-10.232a40.478,40.478,0,0,1,5.888.513v6.469H32.153c-3.268,0-4.287,2.028-4.287,4.108v4.937h7.295l-1.167,7.6H27.867V49.764H42.423a5.091,5.091,0,0,0,5.091-5.091V7.341A5.091,5.091,0,0,0,42.423,2.25Z" transform="translate(0 -2.25)" fill="#fff"/>
</svg>
