<svg xmlns="http://www.w3.org/2000/svg" width="612.973" height="459.729" viewBox="0 0 612.973 459.729">
  <g id="card-checklist" transform="translate(0 -4.5)" opacity="0.3">
    <path id="Path_22" data-name="Path 22" d="M555.506,42.811H57.466A19.155,19.155,0,0,0,38.311,61.966v344.8a19.155,19.155,0,0,0,19.155,19.155h498.04a19.155,19.155,0,0,0,19.155-19.155V61.966A19.155,19.155,0,0,0,555.506,42.811ZM57.466,4.5A57.466,57.466,0,0,0,0,61.966v344.8a57.466,57.466,0,0,0,57.466,57.466h498.04a57.466,57.466,0,0,0,57.466-57.466V61.966A57.466,57.466,0,0,0,555.506,4.5Z" transform="translate(0 0)" fill="#e6983e" fill-rule="evenodd"/>
    <path id="Path_23" data-name="Path 23" d="M172.637,48.46A19.155,19.155,0,0,1,191.793,29.3H383.347a19.155,19.155,0,0,1,0,38.311H191.793A19.155,19.155,0,0,1,172.637,48.46ZM115.324,15.751a19.155,19.155,0,0,1,0,27.124L57.858,100.341a19.155,19.155,0,0,1-27.124,0L11.579,81.186A19.18,19.18,0,0,1,38.7,54.062L44.288,59.7,88.2,15.751a19.155,19.155,0,0,1,27.124,0ZM172.637,201.7a19.155,19.155,0,0,1,19.155-19.155H383.347a19.155,19.155,0,0,1,0,38.311H191.793A19.155,19.155,0,0,1,172.637,201.7Zm-57.313-32.709a19.155,19.155,0,0,1,0,27.124L57.858,253.584a19.156,19.156,0,0,1-27.124,0L11.579,234.429A19.18,19.18,0,0,1,38.7,207.3l5.585,5.636L88.2,168.994a19.155,19.155,0,0,1,27.124,0Z" transform="translate(95.538 90.128)" fill="#e6983e" fill-rule="evenodd"/>
  </g>
</svg>
